<svg width="22" height="22" viewBox="0 0 22 22" fill="none" xmlns="http://www.w3.org/2000/svg">
<path d="M14.4375 15.125C18.6141 15.125 22 11.7391 22 7.5625C22 3.38594 18.6141 0 14.4375 0C10.2609 0 6.875 3.38594 6.875 7.5625C6.875 8.36602 6.99961 9.14375 7.23164 9.86992L0.300781 16.8008C0.107422 16.9941 0 17.2563 0 17.5312V20.9688C0 21.5402 0.459766 22 1.03125 22H4.46875C5.04023 22 5.5 21.5402 5.5 20.9688V19.25H7.21875C7.79023 19.25 8.25 18.7902 8.25 18.2188V16.5H9.96875C10.2437 16.5 10.5059 16.3926 10.6992 16.1992L12.1301 14.7684C12.8562 15.0004 13.634 15.125 14.4375 15.125ZM16.1562 4.125C16.6121 4.125 17.0493 4.30608 17.3716 4.62841C17.6939 4.95074 17.875 5.38791 17.875 5.84375C17.875 6.29959 17.6939 6.73676 17.3716 7.05909C17.0493 7.38142 16.6121 7.5625 16.1562 7.5625C15.7004 7.5625 15.2632 7.38142 14.9409 7.05909C14.6186 6.73676 14.4375 6.29959 14.4375 5.84375C14.4375 5.38791 14.6186 4.95074 14.9409 4.62841C15.2632 4.30608 15.7004 4.125 16.1562 4.125Z" fill="#9ED652"/>
</svg>
