<svg width="28" height="28" viewBox="0 0 28 28" fill="none" xmlns="http://www.w3.org/2000/svg">
<path d="M8.42095 28C7.71171 28 7.1071 27.7522 6.6071 27.2567C6.10711 26.7611 5.85711 26.1653 5.85711 25.4694C5.85711 24.7735 6.10963 24.1802 6.61467 23.6896C7.11974 23.199 7.72688 22.9537 8.43609 22.9537C9.14533 22.9537 9.74994 23.2015 10.2499 23.697C10.7499 24.1926 10.9999 24.7884 10.9999 25.4843C10.9999 26.1802 10.7474 26.7735 10.2424 27.2641C9.7373 27.7547 9.13016 28 8.42095 28ZM22.7066 28C21.9973 28 21.3927 27.7522 20.8927 27.2567C20.3927 26.7611 20.1427 26.1653 20.1427 25.4694C20.1427 24.7735 20.3953 24.1802 20.9003 23.6896C21.4054 23.199 22.0125 22.9537 22.7217 22.9537C23.431 22.9537 24.0356 23.2015 24.5356 23.697C25.0356 24.1926 25.2856 24.7884 25.2856 25.4843C25.2856 26.1802 25.033 26.7735 24.528 27.2641C24.0229 27.7547 23.4158 28 22.7066 28ZM6.57139 4.87109L10.4999 12.8611H20.7856L25.2498 4.87109H6.57139ZM5.49997 2.76846H26.5382C27.085 2.76846 27.501 3.01377 27.7862 3.50438C28.0715 3.99499 28.0713 4.48561 27.7855 4.97622L22.9641 13.4919C22.7022 13.9358 22.3623 14.292 21.9442 14.5607C21.5261 14.8294 21.0685 14.9637 20.5713 14.9637H9.74994L7.74995 18.6083H25.2856V20.7109H8.07138C7.07139 20.7109 6.35115 20.3838 5.91068 19.7297C5.4702 19.0755 5.47616 18.3396 5.92853 17.5219L8.21424 13.3867L2.7857 2.10263H0V0H4.17855L5.49997 2.76846Z" fill="#9ED652"/>
</svg>
