<svg width="13" height="13" viewBox="0 0 13 13" fill="none" xmlns="http://www.w3.org/2000/svg">
<path d="M0.55957 6.32006C0.55957 3.13856 3.13807 0.560059 6.31957 0.560059C9.50107 0.560059 12.0796 3.13856 12.0796 6.32006C12.0796 9.50156 9.50107 12.0801 6.31957 12.0801C3.13807 12.0801 0.55957 9.50156 0.55957 6.32006ZM4.49707 5.24231L5.55682 6.29981L4.49707 7.37756C4.28782 7.58906 4.28782 7.93106 4.49707 8.12231C4.70857 8.35181 5.05057 8.35181 5.24182 8.12231L6.29932 7.08281L7.37707 8.12231C7.58857 8.35181 7.93057 8.35181 8.12182 8.12231C8.35132 7.93106 8.35132 7.58906 8.12182 7.37756L7.08232 6.29981L8.12182 5.24231C8.35132 5.05106 8.35132 4.70906 8.12182 4.49756C7.93057 4.28831 7.58857 4.28831 7.37707 4.49756L6.29932 5.55731L5.24182 4.49756C5.05057 4.28831 4.70857 4.28831 4.49707 4.49756C4.28782 4.70906 4.28782 5.05106 4.49707 5.24231Z" fill="#706E6B"/>
</svg>
