<svg width="48" height="36" viewBox="0 0 48 36" fill="none" xmlns="http://www.w3.org/2000/svg">
<path d="M22.38 29.5875H25.98V27.0562H28.86C29.46 27.0562 29.95 26.8312 30.33 26.3812C30.71 25.9312 30.9 25.425 30.9 24.8625V18.4081C30.9 17.7985 30.71 17.2781 30.33 16.8469C29.95 16.4156 29.46 16.2 28.86 16.2H20.7V12.3187H30.9V8.94375H25.98V6.4125H22.38V8.94375H19.44C18.84 8.94375 18.3 9.16875 17.82 9.61875C17.34 10.0687 17.1 10.5959 17.1 11.2003V17.5997C17.1 18.2041 17.34 18.6844 17.82 19.0406C18.3 19.3969 18.84 19.575 19.44 19.575H27.3V23.6812H17.1V27.0562H22.38V29.5875ZM3.6 36C2.64 36 1.8 35.6625 1.08 34.9875C0.36 34.3125 0 33.525 0 32.625V3.375C0 2.475 0.36 1.6875 1.08 1.0125C1.8 0.3375 2.64 0 3.6 0H44.4C45.36 0 46.2 0.3375 46.92 1.0125C47.64 1.6875 48 2.475 48 3.375V32.625C48 33.525 47.64 34.3125 46.92 34.9875C46.2 35.6625 45.36 36 44.4 36H3.6ZM3.6 32.625H44.4V3.375H3.6V32.625Z" fill="#9ED652"/>
</svg>
