<svg width="18" height="18" viewBox="0 0 18 18" fill="none" xmlns="http://www.w3.org/2000/svg">
<path d="M9.32757 4.48352C6.87127 4.48352 4.89 6.46522 4.89 8.92208C4.89 11.3789 6.87127 13.3606 9.32757 13.3606C11.7839 13.3606 13.7651 11.3789 13.7651 8.92208C13.7651 6.46522 11.7839 4.48352 9.32757 4.48352ZM9.32757 11.8077C7.74024 11.8077 6.44257 10.5136 6.44257 8.92208C6.44257 7.33053 7.73638 6.03643 9.32757 6.03643C10.9188 6.03643 12.2126 7.33053 12.2126 8.92208C12.2126 10.5136 10.9149 11.8077 9.32757 11.8077ZM14.9817 4.30196C14.9817 4.87754 14.5183 5.33724 13.9467 5.33724C13.3712 5.33724 12.9116 4.87368 12.9116 4.30196C12.9116 3.73024 13.3751 3.26668 13.9467 3.26668C14.5183 3.26668 14.9817 3.73024 14.9817 4.30196ZM17.9208 5.35269C17.8551 3.96588 17.5384 2.73745 16.5227 1.72535C15.5108 0.713253 14.2827 0.396489 12.8962 0.326955C11.4672 0.245833 7.1841 0.245833 5.75512 0.326955C4.37248 0.392626 3.14433 0.70939 2.12859 1.72149C1.11286 2.73359 0.800024 3.96202 0.730506 5.34882C0.649402 6.77812 0.649402 11.0622 0.730506 12.4915C0.796162 13.8783 1.11286 15.1067 2.12859 16.1188C3.14433 17.1309 4.36862 17.4477 5.75512 17.5172C7.1841 17.5983 11.4672 17.5983 12.8962 17.5172C14.2827 17.4515 15.5108 17.1348 16.5227 16.1188C17.5346 15.1067 17.8513 13.8783 17.9208 12.4915C18.0019 11.0622 18.0019 6.78199 17.9208 5.35269ZM16.0747 14.0251C15.7734 14.7822 15.1903 15.3655 14.4294 15.6707C13.2901 16.1227 10.5866 16.0184 9.32757 16.0184C8.06852 16.0184 5.36118 16.1188 4.22572 15.6707C3.46874 15.3694 2.88557 14.7861 2.58046 14.0251C2.12859 12.8855 2.23287 10.1814 2.23287 8.92208C2.23287 7.66275 2.13245 4.9548 2.58046 3.81909C2.8817 3.06194 3.46488 2.47863 4.22572 2.17346C5.36504 1.72149 8.06852 1.82579 9.32757 1.82579C10.5866 1.82579 13.294 1.72535 14.4294 2.17346C15.1864 2.47477 15.7696 3.05808 16.0747 3.81909C16.5266 4.95866 16.4223 7.66275 16.4223 8.92208C16.4223 10.1814 16.5266 12.8894 16.0747 14.0251Z" 
fill="white"/>
</svg>
