<svg width="50" height="50" viewBox="0 0 50 50" fill="none" xmlns="http://www.w3.org/2000/svg">
<path d="M49.2285 45.9961L36.1426 32.9102C38.9746 29.4434 40.5371 25.0781 40.5371 20.3125C40.5371 9.0918 31.4424 0 20.2246 0C9.00686 0 0 9.09473 0 20.3125C0 31.5303 9.09377 40.625 20.2246 40.625C24.9893 40.625 29.3604 38.9736 32.8223 36.2266L45.9082 49.3125C46.4551 49.7754 47.0606 50 47.6563 50C48.252 50 48.8555 49.7711 49.3135 49.3134C50.2246 48.3984 50.2246 46.9141 49.2285 45.9961ZM4.68752 20.3125C4.68752 11.6973 11.6973 4.6875 20.3125 4.6875C28.9278 4.6875 35.9375 11.6973 35.9375 20.3125C35.9375 28.9277 28.9278 35.9375 20.3125 35.9375C11.6973 35.9375 4.68752 28.9258 4.68752 20.3125Z" fill="#414141"/>
</svg>
