<svg width="25" height="22" viewBox="0 0 25 22" fill="none" xmlns="http://www.w3.org/2000/svg">
<path d="M13.5418 1.03125V1.48242C13.8196 1.53398 14.0887 1.59844 14.3318 1.66289C14.8873 1.80898 15.2172 2.37617 15.0696 2.92617C14.922 3.47617 14.3491 3.80273 13.7936 3.65664C13.3205 3.53203 12.8777 3.44609 12.4828 3.4418C12.1659 3.4375 11.8447 3.51484 11.6408 3.63086C11.5496 3.68672 11.5062 3.73398 11.4888 3.75977C11.4758 3.78125 11.4585 3.81133 11.4585 3.88008C11.4585 3.89297 11.4585 3.90156 11.4585 3.90586C11.4671 3.91445 11.4975 3.95742 11.6017 4.01758C11.8534 4.16797 12.2267 4.28398 12.7909 4.45156L12.83 4.46445C13.3118 4.60625 13.9541 4.79961 14.475 5.12187C15.0696 5.49141 15.6078 6.10586 15.6208 7.05117C15.6339 8.01797 15.126 8.72266 14.462 9.13516C14.1712 9.31133 13.8587 9.43594 13.5375 9.51328V9.96875C13.5375 10.5402 13.0731 11 12.4958 11C11.9185 11 11.4541 10.5402 11.4541 9.96875V9.47891C11.0418 9.38008 10.6642 9.25117 10.343 9.14375C10.2518 9.11367 10.165 9.08359 10.0826 9.05781C9.53569 8.87734 9.24055 8.29297 9.42285 7.75156C9.60514 7.21016 10.1954 6.91797 10.7423 7.09844C10.8552 7.13711 10.9593 7.17148 11.0591 7.20586C11.6494 7.40352 12.0748 7.54531 12.5305 7.5625C12.8777 7.57539 13.1859 7.49375 13.3639 7.38633C13.4463 7.33477 13.4854 7.2918 13.5028 7.26172C13.5201 7.23594 13.5418 7.18437 13.5375 7.08555V7.07695C13.5375 7.03398 13.5375 6.98672 13.3639 6.8793C13.1165 6.72461 12.7432 6.6043 12.1876 6.43672L12.1052 6.41094C11.6364 6.27344 11.0201 6.08867 10.5253 5.79219C9.93934 5.44414 9.3751 4.84687 9.37076 3.89727C9.36642 2.91328 9.93066 2.23867 10.573 1.86055C10.8508 1.69727 11.1503 1.58555 11.4498 1.5082V1.03125C11.4498 0.459766 11.9142 0 12.4915 0C13.0687 0 13.5331 0.459766 13.5331 1.03125H13.5418ZM24.6617 14.4504C25.2303 15.2152 25.0654 16.2895 24.2928 16.8523L18.7979 20.8613C17.7823 21.6004 16.5583 22 15.2953 22H8.33342H1.3889C0.620666 22 0 21.3855 0 20.625V17.875C0 17.1145 0.620666 16.5 1.3889 16.5H2.98614L4.93495 14.9531C5.9202 14.1711 7.14418 13.75 8.40721 13.75H11.8057H12.5001H15.2779C16.0462 13.75 16.6668 14.3645 16.6668 15.125C16.6668 15.8855 16.0462 16.5 15.2779 16.5H12.5001H11.8057C11.4237 16.5 11.1112 16.8094 11.1112 17.1875C11.1112 17.5656 11.4237 17.875 11.8057 17.875H17.0401L22.2355 14.0852C23.0081 13.5223 24.0931 13.6855 24.6617 14.4504ZM8.40287 16.5H8.36381C8.37683 16.5 8.38985 16.5 8.40287 16.5Z" fill="#9ED652"/>
</svg>
