<svg width="25" height="22" viewBox="0 0 25 22" fill="none" xmlns="http://www.w3.org/2000/svg">
<path d="M7.83098 3.69428C8.6943 3.69428 9.39181 3.03417 9.39181 2.21713C9.39181 1.40009 8.6943 0.73999 7.83098 0.73999H4.70934C2.12421 0.73999 0.0268555 2.7249 0.0268555 5.17142V16.9886C0.0268555 19.435 2.12421 21.42 4.70934 21.42H7.83098C8.6943 21.42 9.39181 20.7599 9.39181 19.9428C9.39181 19.1258 8.6943 18.4657 7.83098 18.4657H4.70934C3.846 18.4657 3.14851 17.8056 3.14851 16.9886V5.17142C3.14851 4.35437 3.846 3.69428 4.70934 3.69428H7.83098ZM24.6342 11.8832C24.8683 11.6755 25.0001 11.3847 25.0001 11.08C25.0001 10.7753 24.8683 10.4845 24.6342 10.2768L17.6105 3.99894C17.2691 3.69428 16.7716 3.61118 16.3423 3.7866C15.9131 3.96201 15.6351 4.3636 15.6351 4.80213V8.12571H9.39181C8.52847 8.12571 7.83098 8.7858 7.83098 9.60285V12.5571C7.83098 13.3742 8.52847 14.0343 9.39181 14.0343H15.6351V17.3578C15.6351 17.8009 15.9131 18.198 16.3423 18.3734C16.7716 18.5487 17.2691 18.4657 17.6105 18.161L24.6342 11.8832Z" fill="#1E2C7D"/>
</svg>
