<svg width="29" height="26" viewBox="0 0 29 26" fill="none" xmlns="http://www.w3.org/2000/svg">
<path d="M27.4885 11.5917V23.8333C27.4885 24.4111 27.2721 24.9167 26.8392 25.35C26.4063 25.7833 25.9013 26 25.3242 26H3.64505C3.06791 26 2.5629 25.7833 2.13004 25.35C1.69718 24.9167 1.48075 24.4111 1.48075 23.8333V11.5917C0.807407 11.0139 0.362521 10.3037 0.146091 9.46111C-0.07034 8.61852 -0.0462921 7.77593 0.218234 6.93333L1.76932 2.05833C1.9617 1.40833 2.29837 0.902778 2.77933 0.541667C3.26029 0.180556 3.81339 0 4.43863 0H24.3863C25.0597 0 25.6488 0.186574 26.1538 0.559722C26.6589 0.93287 27.0075 1.43241 27.1999 2.05833L28.7871 6.93333C29.0516 7.77593 29.0696 8.61852 28.8412 9.46111C28.6127 10.3037 28.1618 11.0139 27.4885 11.5917ZM17.7491 10.4722C18.4465 10.4722 19.0357 10.2435 19.5166 9.78611C19.9976 9.3287 20.19 8.775 20.0938 8.125L19.192 2.16667H15.5848V8.125C15.5848 8.75093 15.7892 9.29861 16.198 9.76806C16.6068 10.2375 17.1239 10.4722 17.7491 10.4722ZM11.0037 10.4722C11.677 10.4722 12.2482 10.2435 12.7171 9.78611C13.186 9.3287 13.4205 8.775 13.4205 8.125V2.16667H9.81333L8.91153 8.125C8.81534 8.75093 8.98368 9.29861 9.41654 9.76806C9.8494 10.2375 10.3785 10.4722 11.0037 10.4722ZM4.43863 10.4722C5.01578 10.4722 5.51477 10.2736 5.93561 9.87639C6.35645 9.47917 6.60294 8.99167 6.67508 8.41389L7.61295 2.16667H4.00577L2.34647 7.43889C2.10599 8.18519 2.20218 8.87732 2.63504 9.51528C3.06791 10.1532 3.6691 10.4722 4.43863 10.4722ZM24.5306 10.4722C25.3001 10.4722 25.9074 10.1593 26.3522 9.53333C26.7971 8.90741 26.8993 8.20926 26.6589 7.43889L24.9996 2.16667H21.3924L22.3302 8.41389C22.4024 8.99167 22.6489 9.47917 23.0697 9.87639C23.4905 10.2736 23.9775 10.4722 24.5306 10.4722ZM3.64505 23.8333H25.3242V12.6028C25.3482 12.6269 25.2701 12.6389 25.0897 12.6389H24.5306C23.9294 12.6389 23.3583 12.5125 22.8172 12.2597C22.2761 12.0069 21.7411 11.6157 21.212 11.0861C20.8272 11.5676 20.3463 11.9468 19.7691 12.2236C19.192 12.5005 18.5547 12.6389 17.8573 12.6389C17.1359 12.6389 16.5167 12.5366 15.9996 12.3319C15.4826 12.1273 14.9836 11.7843 14.5027 11.3028C14.1419 11.7361 13.685 12.0671 13.1319 12.2958C12.5788 12.5245 11.9536 12.6389 11.2562 12.6389C10.5107 12.6389 9.8494 12.5065 9.27225 12.2417C8.6951 11.9769 8.20212 11.5917 7.79331 11.0861C7.21616 11.5917 6.65104 11.9769 6.09794 12.2417C5.54483 12.5065 4.99173 12.6389 4.43863 12.6389H3.95166C3.79535 12.6389 3.69315 12.6269 3.64505 12.6028V23.8333Z" fill="#9ED652"/>
</svg>
