<svg width="22" height="18" viewBox="0 0 22 18" fill="none" xmlns="http://www.w3.org/2000/svg">
<path d="M19.1925 4.65844C19.206 4.84778 19.206 5.03716 19.206 5.2265C19.206 11.0016 14.8159 17.6559 6.79191 17.6559C4.31988 17.6559 2.02349 16.9391 0.0917969 15.6948C0.443025 15.7354 0.780698 15.7489 1.14544 15.7489C3.18516 15.7489 5.06284 15.0592 6.56226 13.8825C4.64408 13.8419 3.03659 12.5841 2.48274 10.8529C2.75293 10.8934 3.02308 10.9205 3.30678 10.9205C3.69851 10.9205 4.09028 10.8664 4.45498 10.7717C2.45576 10.3659 0.956291 8.60773 0.956291 6.48431V6.43023C1.53713 6.75483 2.2126 6.9577 2.92848 6.98472C1.75326 6.20026 0.983319 4.86131 0.983319 3.3465C0.983319 2.53502 1.19941 1.79115 1.57767 1.14195C3.72549 3.79283 6.95399 5.524 10.5742 5.71338C10.5066 5.38878 10.4661 5.05069 10.4661 4.71256C10.4661 2.30509 12.4113 0.343994 14.8293 0.343994C16.0855 0.343994 17.2202 0.871466 18.0172 1.72354C19.0033 1.5342 19.9489 1.16901 20.7864 0.668595C20.4622 1.68299 19.7733 2.53506 18.8683 3.07602C19.7463 2.98139 20.5973 2.73789 21.3808 2.3998C20.7865 3.26536 20.0435 4.03625 19.1925 4.65844Z" 
fill="white"/>
</svg>
