<svg width="28" height="22" viewBox="0 0 28 22" fill="none" xmlns="http://www.w3.org/2000/svg">
<path d="M6.3 0C7.22826 0 8.1185 0.362164 8.77487 1.00682C9.43125 1.65148 9.8 2.52582 9.8 3.4375C9.8 4.34918 9.43125 5.22352 8.77487 5.86818C8.1185 6.51284 7.22826 6.875 6.3 6.875C5.37174 6.875 4.4815 6.51284 3.82513 5.86818C3.16875 5.22352 2.8 4.34918 2.8 3.4375C2.8 2.52582 3.16875 1.65148 3.82513 1.00682C4.4815 0.362164 5.37174 0 6.3 0ZM22.4 0C23.3283 0 24.2185 0.362164 24.8749 1.00682C25.5312 1.65148 25.9 2.52582 25.9 3.4375C25.9 4.34918 25.5312 5.22352 24.8749 5.86818C24.2185 6.51284 23.3283 6.875 22.4 6.875C21.4717 6.875 20.5815 6.51284 19.9251 5.86818C19.2687 5.22352 18.9 4.34918 18.9 3.4375C18.9 2.52582 19.2687 1.65148 19.9251 1.00682C20.5815 0.362164 21.4717 0 22.4 0ZM0 12.8348C0 10.3039 2.09125 8.25 4.66812 8.25H6.53625C7.23187 8.25 7.8925 8.40039 8.4875 8.6668C8.43062 8.97617 8.40438 9.29844 8.40438 9.625C8.40438 11.2664 9.13937 12.7402 10.2987 13.75C10.29 13.75 10.2812 13.75 10.2681 13.75H0.931875C0.42 13.75 0 13.3375 0 12.8348ZM17.7319 13.75C17.7231 13.75 17.7144 13.75 17.7013 13.75C18.865 12.7402 19.5956 11.2664 19.5956 9.625C19.5956 9.29844 19.565 8.98047 19.5125 8.6668C20.1075 8.39609 20.7681 8.25 21.4638 8.25H23.3319C25.9087 8.25 28 10.3039 28 12.8348C28 13.3418 27.58 13.75 27.0681 13.75H17.7319ZM9.8 9.625C9.8 8.53098 10.2425 7.48177 11.0302 6.70818C11.8178 5.9346 12.8861 5.5 14 5.5C15.1139 5.5 16.1822 5.9346 16.9698 6.70818C17.7575 7.48177 18.2 8.53098 18.2 9.625C18.2 10.719 17.7575 11.7682 16.9698 12.5418C16.1822 13.3154 15.1139 13.75 14 13.75C12.8861 13.75 11.8178 13.3154 11.0302 12.5418C10.2425 11.7682 9.8 10.719 9.8 9.625ZM5.6 20.8527C5.6 17.6902 8.21187 15.125 11.4319 15.125H16.5681C19.7881 15.125 22.4 17.6902 22.4 20.8527C22.4 21.4844 21.8794 22 21.2319 22H6.76812C6.125 22 5.6 21.4887 5.6 20.8527Z" fill="#9ED652"/>
</svg>
