<svg width="20" height="23" viewBox="0 0 20 23" fill="none" xmlns="http://www.w3.org/2000/svg">
<path d="M19.9989 21.9927C19.7442 17.907 16.8506 14.5078 12.938 13.3526C15.3079 12.2857 16.9536 9.96717 16.9536 7.2792C16.9536 3.57946 13.8396 0.579956 9.99857 0.579956C6.15757 0.579956 3.04355 3.57946 3.04355 7.2792C3.04355 9.96717 4.68928 12.2857 7.062 13.3526C3.14945 14.5078 0.255814 17.907 0.00108302 21.9927C-0.018952 22.3098 0.241503 22.58 0.573512 22.58C0.874038 22.58 1.12591 22.3539 1.14594 22.0644C1.41785 17.5845 5.27889 14.0336 9.99857 14.0336C14.7183 14.0336 18.5793 17.5845 18.8541 22.0644C18.8712 22.3539 19.1231 22.58 19.4265 22.58C19.7585 22.58 20.019 22.3098 19.9989 21.9927ZM4.18841 7.2792C4.18841 4.18873 6.7901 1.68271 9.99857 1.68271C13.207 1.68271 15.8087 4.18873 15.8087 7.2792C15.8087 10.3697 13.207 12.8757 9.99857 12.8757C6.7901 12.8757 4.18841 10.3697 4.18841 7.2792Z" fill="#9ED652"/>
<path d="M19.9989 21.9927C19.7442 17.907 16.8506 14.5078 12.938 13.3526C15.3079 12.2857 16.9536 9.96717 16.9536 7.2792C16.9536 3.57946 13.8396 0.579956 9.99857 0.579956C6.15757 0.579956 3.04355 3.57946 3.04355 7.2792C3.04355 9.96717 4.68928 12.2857 7.062 13.3526C3.14945 14.5078 0.255814 17.907 0.00108302 21.9927C-0.018952 22.3098 0.241503 22.58 0.573512 22.58C0.874038 22.58 1.12591 22.3539 1.14594 22.0644C1.41785 17.5845 5.27889 14.0336 9.99857 14.0336C14.7183 14.0336 18.5793 17.5845 18.8541 22.0644C18.8712 22.3539 19.1231 22.58 19.4265 22.58C19.7585 22.58 20.019 22.3098 19.9989 21.9927ZM4.18841 7.2792C4.18841 4.18873 6.7901 1.68271 9.99857 1.68271C13.207 1.68271 15.8087 4.18873 15.8087 7.2792C15.8087 10.3697 13.207 12.8757 9.99857 12.8757C6.7901 12.8757 4.18841 10.3697 4.18841 7.2792Z" stroke="#9ED652"/>
</svg>

