<svg version="1.1" id="Layer_1" xmlns="http://www.w3.org/2000/svg" xmlns:xlink="http://www.w3.org/1999/xlink" x="0px" y="0px"
	 width="100%" viewBox="0 0 784 184" enable-background="new 0 0 784 184" xml:space="preserve">
<path fill="currentColor" opacity="1.000000" stroke="none" 
	d="
M526.000000,185.000000 
	C352.166687,185.000000 178.833359,184.985886 5.500120,185.093781 
	C1.750904,185.096115 0.894833,184.250626 0.903657,180.499832 
	C1.041281,122.000168 1.038146,63.499989 0.903012,5.000308 
	C0.895101,1.575556 1.576273,0.904444 4.999953,0.905807 
	C263.666534,1.008750 522.333191,1.008745 780.999756,0.905843 
	C784.422852,0.904481 785.104919,1.574744 785.096985,5.000045 
	C784.961914,63.666393 784.961975,122.333229 785.096985,180.999573 
	C785.104858,184.424088 784.424744,185.100891 781.000061,185.095947 
	C696.166870,184.973526 611.333374,185.000000 526.000000,185.000000 
z"/>
<path fill="#8BB645" opacity="1.000000" stroke="none" 
	d="
M119.765808,90.800720 
	C123.863770,95.006004 127.579430,98.884132 132.754837,101.471642 
	C147.342484,108.764923 164.518082,99.170555 169.019058,84.363762 
	C171.107788,77.492554 169.464447,71.144112 166.940979,64.427948 
	C173.751404,58.857395 181.056854,54.451073 189.526031,51.787651 
	C195.134033,62.517242 196.285065,73.503799 195.259613,85.257683 
	C194.051285,99.107849 187.167480,109.330368 177.346924,118.034401 
	C168.907257,125.514549 158.781876,129.300629 147.474045,130.028946 
	C136.951736,130.706665 126.972229,128.822540 117.292213,123.705193 
	C116.581184,130.530838 117.279076,136.778229 116.087547,142.983948 
	C114.064415,153.520844 103.320244,162.590469 93.032463,162.065994 
	C90.610802,161.942551 89.925400,161.180466 89.960899,158.861649 
	C90.072945,151.542816 90.052338,144.220551 89.961136,136.901123 
	C89.941360,135.314255 90.500259,134.014999 91.126541,132.684128 
	C96.834366,120.554893 102.555405,108.431870 108.577393,96.133797 
	C112.277153,93.953117 115.348793,91.304146 119.765808,90.800720 
z"/>
<path fill="#1B98D1" opacity="1.000000" stroke="none" 
	d="
M87.253548,129.518280 
	C80.016747,129.888092 73.030411,129.914185 66.045235,130.018204 
	C64.071808,130.047592 62.713551,129.673691 61.782513,127.562897 
	C53.569786,108.943596 45.301926,90.347778 36.906734,71.810066 
	C30.855032,58.447094 24.640175,45.157005 18.390181,31.885221 
	C14.690897,24.029839 14.640455,23.975159 23.075342,24.011406 
	C26.891457,24.027805 30.726757,23.949373 34.518936,24.293379 
	C43.573128,25.114725 47.948719,31.650114 51.396294,38.922695 
	C57.049305,50.847599 62.455856,62.889263 67.977425,74.876587 
	C70.633499,80.642921 73.314850,86.397621 76.011337,92.521240 
	C78.131653,94.989479 78.460045,97.883904 79.351669,100.499619 
	C81.902786,107.983772 84.410133,115.483521 86.883743,122.993927 
	C87.544067,124.998817 88.523376,127.013351 87.253548,129.518280 
z"/>
<path fill="#1996D0" opacity="1.000000" stroke="none" 
	d="
M511.193268,97.704346 
	C514.522461,101.559708 512.186951,104.688858 510.122040,107.202332 
	C503.754791,114.952690 495.584412,118.876099 485.274689,119.116127 
	C470.023193,119.471214 458.875153,112.980515 453.274902,99.220955 
	C444.852203,78.526756 457.100281,54.089016 482.181305,52.879803 
	C500.189484,52.011589 513.274048,63.890671 516.458008,77.823181 
	C517.220947,81.161766 517.356995,84.524155 516.795105,87.656868 
	C516.156799,91.215645 512.794983,92.012337 509.426575,92.007721 
	C495.597839,91.988823 481.769012,91.982277 467.940430,92.030411 
	C466.703583,92.034714 465.096039,91.344376 464.275818,92.682625 
	C463.333099,94.220749 464.673309,95.636971 465.400116,96.753662 
	C473.420746,109.076546 489.913940,110.588272 500.474335,99.992455 
	C503.502838,96.953735 506.323639,93.763962 511.193268,97.704346 
z"/>
<path fill="#91B956" opacity="1.000000" stroke="none" 
	d="
M637.652527,70.782326 
	C647.783752,49.739792 676.119873,47.766224 690.166199,61.551361 
	C697.691772,68.936943 701.337219,77.519684 701.042114,88.014069 
	C700.826965,95.664902 700.954956,103.327042 701.019714,110.983376 
	C701.050293,114.589294 701.109863,118.119698 696.459412,118.960518 
	C692.252380,119.721153 690.663391,118.387032 688.629456,112.336708 
	C681.641968,116.960152 674.196472,119.310768 665.639893,119.179008 
	C656.954285,119.045280 649.634766,115.874947 643.987915,110.143745 
	C634.151062,100.160027 630.670166,86.111275 637.652527,70.782326 
z"/>
<path fill="#1996D0" opacity="1.000000" stroke="none" 
	d="
M380.610168,55.253872 
	C392.704773,60.197941 399.813568,70.116287 400.847931,83.241440 
	C401.617340,93.004784 400.949127,102.877861 401.028656,112.701187 
	C401.054321,115.869431 400.054962,118.316795 396.787903,118.891281 
	C393.464355,119.475716 390.501068,119.031250 389.809814,114.687820 
	C389.422882,112.256355 388.300385,112.601540 386.294373,113.804634 
	C375.146088,120.490868 363.513367,121.715279 351.834595,115.310661 
	C342.484528,110.183075 336.745605,102.649155 334.796997,91.600632 
	C331.663147,73.831947 343.552826,57.458134 358.546997,53.901974 
	C365.812622,52.178787 373.166046,52.067421 380.610168,55.253872 
z"/>
<path fill="#91B956" opacity="1.000000" stroke="none" 
	d="
M574.099243,118.346939 
	C567.154053,119.397804 565.018677,117.587029 565.011047,110.947670 
	C564.983093,86.651291 565.076965,62.354393 564.933472,38.058819 
	C564.905640,33.346436 566.483398,31.533546 571.300171,31.932663 
	C579.861084,32.642006 588.469727,31.277161 597.068726,32.904659 
	C607.925720,34.959522 616.914246,45.030869 618.122986,55.940140 
	C619.390137,67.377274 616.392639,76.695610 607.450745,84.090416 
	C601.930664,88.655380 595.400391,89.842216 588.619751,89.952087 
	C577.002014,90.140358 577.000000,90.014793 577.000000,101.564301 
	C577.000000,105.058990 576.827698,108.565033 577.056763,112.044640 
	C577.227661,114.641258 576.408936,116.551048 574.099243,118.346939 
z"/>
<path fill="#1996D0" opacity="1.000000" stroke="none" 
	d="
M290.003601,69.981560 
	C294.429413,59.948769 298.770874,50.289928 303.138336,40.642860 
	C303.812866,39.152916 304.354034,37.496025 305.398224,36.302433 
	C307.495209,33.905342 309.792908,31.852077 313.476624,33.806694 
	C316.960205,35.655094 317.298950,38.363083 315.970062,41.500370 
	C311.461700,52.143547 306.866150,62.750217 302.241058,73.343414 
	C296.244659,87.077415 290.146637,100.767235 284.196045,114.520920 
	C283.149506,116.939835 281.996216,118.895515 279.077301,118.984001 
	C276.107147,119.074036 275.201813,116.680656 274.309357,114.635895 
	C267.145050,98.221375 260.065979,81.769585 252.987686,65.317650 
	C249.578339,57.393364 246.322372,49.401558 242.808029,41.524616 
	C241.097900,37.691582 242.021179,35.233643 245.807846,33.633194 
	C249.771805,31.957815 252.124237,33.929420 253.630539,37.245266 
	C261.516510,54.604816 269.301392,72.010292 277.195740,89.365990 
	C277.712463,90.501968 277.959503,91.952766 279.561584,92.716064 
	C283.015717,85.266586 286.471771,77.812981 290.003601,69.981560 
z"/>
<path fill="#91B956" opacity="1.000000" stroke="none" 
	d="
M754.046936,106.137558 
	C749.060242,119.515198 744.092285,132.488800 739.203430,145.492111 
	C737.723267,149.429092 734.965088,151.168274 731.156860,149.490204 
	C727.109070,147.706482 727.578247,144.307159 729.027100,140.720810 
	C731.720947,134.053253 734.328552,127.341873 736.674805,120.546120 
	C738.240540,116.011101 734.933838,112.282745 733.550293,108.423996 
	C728.199890,93.501045 722.117798,78.841919 716.611877,63.972122 
	C715.395081,60.686012 714.441406,56.553726 718.647156,54.272984 
	C721.814087,52.555599 725.136475,55.110943 727.093872,60.138042 
	C732.485657,73.985893 737.929688,87.813385 743.547729,102.145538 
	C748.856018,87.684532 753.963440,73.726936 759.107117,59.782707 
	C760.782349,55.241379 764.298645,53.044525 767.666443,54.321060 
	C771.061707,55.608009 771.827759,59.302223 770.016052,64.042809 
	C765.288818,76.411980 760.693848,88.831665 756.024963,101.223206 
	C755.447693,102.755196 754.742188,104.238869 754.046936,106.137558 
z"/>
<path fill="#1996D0" opacity="1.000000" stroke="none" 
	d="
M417.208557,102.407951 
	C417.037323,80.830101 417.059967,59.678059 416.959656,38.526592 
	C416.942932,34.997665 418.468292,32.642731 421.728333,32.113689 
	C425.152008,31.558102 427.619934,33.050438 428.528564,36.882122 
	C428.924561,38.551910 428.972687,40.144333 428.976379,41.765556 
	C429.014832,58.587360 429.004791,75.409286 428.993561,92.231171 
	C428.992249,94.190605 428.410767,96.148056 428.286224,98.010101 
	C427.895172,103.856873 430.085724,106.363052 436.355255,107.965958 
	C440.090607,108.920959 440.099579,111.577782 440.007385,114.508163 
	C439.910980,117.573433 438.338989,118.889084 435.322449,119.022705 
	C424.350311,119.508728 421.387421,119.093796 417.208557,102.407951 
z"/>
<path fill="#1895D0" opacity="1.000000" stroke="none" 
	d="
M87.381302,129.899719 
	C86.220108,122.293907 82.638512,115.584396 80.633636,108.405220 
	C79.251244,103.455078 77.573273,98.587471 76.032654,93.283943 
	C77.709259,91.947227 77.576340,89.809944 79.019295,88.314240 
	C79.858208,87.417641 80.728539,87.199104 81.456917,87.645866 
	C88.558220,92.001534 96.223747,95.507759 102.181480,101.752594 
	C99.036949,111.245857 94.136230,119.541786 90.316589,128.321960 
	C89.780434,129.554413 89.136597,130.229233 87.381302,129.899719 
z"/>
<path fill="#58B4D1" opacity="1.000000" stroke="none" 
	d="
M144.670654,24.771452 
	C145.476578,24.983349 145.865921,24.989084 146.547089,24.982498 
	C147.425797,27.059381 145.573196,27.385584 144.443741,28.010201 
	C140.609177,30.130821 137.696991,33.198734 134.887604,36.902748 
	C132.830460,39.250175 131.382111,41.625122 129.399216,44.033722 
	C128.889481,44.328934 128.656937,44.395237 128.060303,44.436356 
	C123.603600,42.601547 119.935883,40.074062 116.260155,37.572083 
	C114.928879,36.665916 113.380112,35.805210 113.786575,33.467957 
	C120.578514,28.330027 128.114304,26.063404 136.505524,24.985203 
	C139.318176,24.030472 141.808060,24.690201 144.670654,24.771452 
z"/>
<path fill="#2B9FD0" opacity="1.000000" stroke="none" 
	d="
M114.577469,74.741890 
	C113.555214,77.767044 112.274559,80.528061 110.914276,83.647980 
	C108.982788,85.491615 107.067284,84.932190 105.315857,83.953918 
	C99.182060,80.527878 93.048943,77.088173 87.360107,72.330658 
	C87.425430,68.799278 89.486046,66.380447 91.001602,63.330776 
	C93.935608,61.521065 95.853592,63.604172 97.810692,64.813133 
	C103.239189,68.166512 108.599838,71.624222 114.577469,74.741890 
z"/>
<path fill="#229AD0" opacity="1.000000" stroke="none" 
	d="
M87.011147,72.325035 
	C92.816010,74.346268 97.518631,78.289200 102.805809,81.241966 
	C105.093056,82.519341 107.241692,84.158020 110.453781,84.004044 
	C109.465073,86.906113 108.095497,89.805328 106.420319,92.871841 
	C104.784492,94.131729 103.304192,93.975456 101.961365,93.256134 
	C96.046204,90.087578 90.334663,86.574486 84.839310,82.722572 
	C84.029350,82.154846 83.596245,81.214111 83.672714,79.753281 
	C84.267311,76.896614 85.567574,74.771317 87.011147,72.325035 
z"/>
<path fill="#34A3D0" opacity="1.000000" stroke="none" 
	d="
M114.995697,74.689865 
	C109.000603,74.768890 105.226082,70.319672 100.469635,67.890472 
	C97.553474,66.401146 95.037285,64.147362 91.511238,63.051590 
	C92.891678,59.421356 94.618225,55.831455 96.652679,52.062523 
	C101.380898,56.919640 107.505508,59.529835 112.955246,63.097805 
	C114.733337,64.261940 116.735313,65.072281 118.601982,66.738708 
	C117.607475,69.462273 116.381500,71.917976 114.995697,74.689865 
z"/>
<path fill="#3DA7D1" opacity="1.000000" stroke="none" 
	d="
M118.986740,66.700928 
	C112.635162,65.140228 107.556442,61.238995 102.275085,57.748318 
	C100.248581,56.408909 96.900833,56.237808 96.976326,52.263496 
	C97.381454,49.566715 99.096146,48.019073 100.649307,46.040512 
	C106.164642,47.924793 110.469376,51.505119 115.253387,54.267670 
	C117.090210,55.328342 118.904793,56.433498 121.264160,57.208332 
	C123.294975,58.941597 121.673729,60.168327 121.067345,61.835052 
	C120.941765,63.817383 119.989807,65.083839 118.986740,66.700928 
z"/>
<path fill="#1C97D0" opacity="1.000000" stroke="none" 
	d="
M83.407608,79.594299 
	C84.786568,82.549507 87.846909,83.465393 90.373428,84.819565 
	C95.388237,87.507431 99.476013,91.901878 105.730820,93.023712 
	C106.110260,96.394547 103.677177,98.793686 102.367027,101.931450 
	C95.008514,96.869499 87.462540,92.429588 79.510452,88.047226 
	C80.487595,85.279884 81.808517,82.553719 83.407608,79.594299 
z"/>
<path fill="#46ABD1" opacity="1.000000" stroke="none" 
	d="
M122.131104,57.862061 
	C119.742790,58.268429 118.125702,57.378815 116.402122,56.282829 
	C111.332443,53.059155 105.981529,50.276257 101.105591,46.202087 
	C102.064400,43.092838 104.276474,41.187870 106.665787,39.031883 
	C112.201073,43.470562 118.449165,46.471909 124.633324,50.218369 
	C125.039955,50.628895 125.176086,50.817692 125.379898,51.348278 
	C125.314873,53.097588 124.533707,54.259171 123.847214,55.819031 
	C123.365181,56.725792 122.956886,57.267254 122.131104,57.862061 
z"/>
<path fill="#4EAFD1" opacity="1.000000" stroke="none" 
	d="
M125.184036,50.924831 
	C118.385727,48.010998 111.730141,45.345760 107.008118,39.240631 
	C108.362595,36.184097 111.236092,35.167183 113.665710,33.219872 
	C115.254417,37.024555 119.258133,37.690189 121.932297,39.896477 
	C123.675308,41.334522 125.760010,42.358410 127.877335,43.859558 
	C129.261429,45.895802 127.893913,47.247059 127.192230,49.038101 
	C126.638718,49.962357 126.156219,50.477066 125.184036,50.924831 
z"/>
<path fill="#84AC42" opacity="1.000000" stroke="none" 
	d="
M189.804840,51.675350 
	C182.425415,55.982159 175.017715,59.969364 167.245117,63.999390 
	C165.937592,63.529972 165.101608,62.931080 164.977539,61.417740 
	C164.481216,59.959869 165.063385,59.042469 165.897446,58.541176 
	C172.541779,54.547665 178.901016,50.004307 186.761139,47.801483 
	C188.788696,48.465981 188.816040,50.277077 189.804840,51.675350 
z"/>
<path fill="#4A5829" opacity="1.000000" stroke="none" 
	d="
M129.202576,44.247574 
	C129.631256,41.225647 131.379913,39.148373 133.626968,37.042847 
	C140.693253,33.784275 147.029449,29.916084 153.709137,25.969440 
	C155.587341,25.992561 157.126297,26.101755 158.856583,26.545811 
	C160.325684,29.267590 158.360657,30.258392 156.937515,31.114307 
	C149.327118,35.691380 141.496628,39.887054 133.740524,44.211338 
	C132.396713,44.960567 130.959473,45.211426 129.202576,44.247574 
z"/>
<path fill="#51612C" opacity="1.000000" stroke="none" 
	d="
M128.706207,44.016735 
	C132.095261,44.691456 134.300613,42.551876 136.603317,41.113098 
	C143.987015,36.499596 152.490677,33.730377 158.991913,27.230255 
	C160.164856,27.145416 161.508148,26.646196 162.669662,28.010693 
	C164.182571,30.821939 162.063782,31.712458 160.420044,32.603432 
	C150.825424,37.804134 141.440872,43.379257 131.843216,48.573620 
	C130.214645,49.455017 128.657242,50.403522 126.446922,49.252850 
	C126.780647,47.604412 127.398209,46.210789 128.039398,44.484230 
	C128.063034,44.151291 128.490707,44.056107 128.706207,44.016735 
z"/>
<path fill="#56692E" opacity="1.000000" stroke="none" 
	d="
M126.028564,49.268852 
	C129.137299,49.635120 131.104233,47.503590 133.351181,46.279251 
	C142.601593,41.238785 151.792999,36.090080 161.012772,30.993248 
	C161.913498,30.495319 162.651367,29.895544 162.949524,28.505459 
	C163.594238,28.211113 164.193878,28.258228 164.920868,28.590805 
	C166.003143,30.112381 165.520782,31.274183 164.634705,32.720001 
	C161.718994,34.978966 158.296738,35.641735 155.493256,38.103603 
	C153.049973,39.554932 150.548813,40.188114 148.396652,42.153259 
	C145.330673,43.898197 142.150955,44.738628 139.493500,47.240128 
	C139.010300,47.591816 138.804428,47.717930 138.269257,48.001770 
	C135.082169,49.100914 132.682922,50.925461 130.025986,52.243198 
	C128.384705,53.057194 126.612900,54.687645 124.821243,52.255054 
	C124.944206,51.902634 124.948906,51.443077 124.892105,51.220390 
	C125.188217,50.511688 125.541122,50.025677 126.028564,49.268852 
z"/>
<path fill="#424D26" opacity="1.000000" stroke="none" 
	d="
M153.863495,25.550053 
	C148.498932,31.483105 141.490280,34.586887 134.126343,37.152542 
	C136.613831,31.362499 141.258530,28.059364 146.759293,25.303017 
	C149.169510,23.645626 151.383011,25.569845 153.863495,25.550053 
z"/>
<path fill="#7FA540" opacity="1.000000" stroke="none" 
	d="
M187.055237,47.635536 
	C179.687454,51.889523 172.128082,55.580296 165.105042,60.788719 
	C164.014984,60.277809 163.078323,59.452763 162.016235,58.338623 
	C162.013672,57.384491 162.229187,56.676662 162.800232,56.350945 
	C169.905609,52.298191 176.527908,47.343891 184.753296,44.835697 
	C186.088989,45.459419 186.909424,46.096912 187.055237,47.635536 
z"/>
<path fill="#7B9E3E" opacity="1.000000" stroke="none" 
	d="
M184.994980,44.683098 
	C177.578857,49.218544 170.052338,53.484146 162.208313,57.899643 
	C161.310455,57.579292 160.730103,57.109051 160.050232,56.372063 
	C159.475220,54.129635 161.112335,53.456646 162.279572,52.759392 
	C168.114944,49.273590 174.085358,46.020161 180.064301,42.786102 
	C180.804306,42.385826 181.642059,42.301842 182.795807,42.748001 
	C183.702286,43.445007 184.293427,43.929131 184.994980,44.683098 
z"/>
<path fill="#76973C" opacity="1.000000" stroke="none" 
	d="
M183.058136,42.641960 
	C175.101364,46.396656 167.686310,50.910225 160.140625,55.818241 
	C158.747528,56.146252 157.890961,55.520988 157.026855,54.353134 
	C157.092422,52.784893 157.910187,51.893997 158.955627,51.376400 
	C166.264786,47.757610 172.858521,42.828152 180.764618,39.817070 
	C182.092789,40.460350 182.918930,41.095448 183.058136,42.641960 
z"/>
<path fill="#607833" opacity="1.000000" stroke="none" 
	d="
M169.833237,31.789860 
	C170.693329,32.103451 171.276581,32.246918 171.984650,32.672539 
	C171.072983,35.965240 168.267715,37.038498 165.838165,38.320171 
	C158.618988,42.128563 151.679413,46.418926 144.272919,50.603859 
	C142.927414,50.879696 141.858353,50.928516 140.393463,50.904377 
	C138.704865,48.807629 140.370346,47.964336 141.597092,47.063953 
	C142.873093,46.127403 144.415756,45.589359 145.876968,44.308136 
	C146.295364,43.938969 146.469193,43.799862 146.928024,43.490425 
	C149.209457,42.538010 151.293015,41.923454 153.128723,40.141151 
	C153.546371,39.776665 153.723221,39.640247 154.195953,39.342880 
	C157.017395,38.234688 159.516479,37.235508 161.899429,35.300812 
	C162.315689,34.931675 162.488449,34.792416 162.944519,34.482750 
	C164.419083,33.843754 165.643509,33.440102 166.873840,32.360577 
	C167.293045,32.022964 167.470016,31.898516 167.955246,31.671885 
	C168.696671,31.529747 169.127640,31.546471 169.833237,31.789860 
z"/>
<path fill="#688336" opacity="1.000000" stroke="none" 
	d="
M172.709015,34.031456 
	C174.254471,33.841061 175.110947,34.476967 175.975967,35.652039 
	C175.566208,38.188644 173.604248,38.897774 171.893280,39.872616 
	C165.123871,43.729546 158.361221,47.598457 151.271515,51.603706 
	C150.208542,51.549149 149.420837,51.266613 148.315033,50.907864 
	C146.694901,48.256527 148.916885,47.738750 150.378433,46.872311 
	C157.659561,42.555851 165.244354,38.765316 172.709015,34.031456 
z"/>
<path fill="#637D34" opacity="1.000000" stroke="none" 
	d="
M172.976074,33.649521 
	C172.908951,36.219784 170.821686,36.480495 169.317886,37.318798 
	C162.882629,40.906162 156.428802,44.460258 149.974396,48.013145 
	C149.077744,48.506718 148.348190,49.109833 148.044891,50.490799 
	C146.927490,50.879803 145.858017,50.927959 144.392517,50.903496 
	C144.077560,48.515991 146.068527,48.100895 147.584946,47.185837 
	C155.480591,42.421333 163.927811,38.602547 171.794250,33.101551 
	C172.455322,32.973499 172.721481,33.128876 172.976074,33.649521 
z"/>
<path fill="#72913A" opacity="1.000000" stroke="none" 
	d="
M180.977646,39.674118 
	C173.247192,44.552219 165.387085,49.151581 157.210129,53.901871 
	C156.324860,53.919239 155.756454,53.785675 155.069183,53.379009 
	C155.685883,48.587143 160.607681,48.938122 163.181107,46.029518 
	C163.629944,45.677307 163.818268,45.549858 164.308716,45.270485 
	C166.672882,44.392792 168.735992,43.668941 170.544968,41.793175 
	C170.995026,41.456207 171.188080,41.337303 171.690247,41.072430 
	C174.215057,40.364716 176.050430,38.699242 178.781830,38.826859 
	C179.685089,39.100838 180.266541,39.248112 180.977646,39.674118 
z"/>
<path fill="#84AC42" opacity="1.000000" stroke="none" 
	d="
M120.052032,90.602310 
	C116.370033,92.107040 113.761154,95.610687 109.263870,95.967850 
	C108.891083,93.126137 110.555916,90.961121 112.003387,88.318115 
	C113.798851,86.927605 115.317589,85.605835 117.775238,85.798386 
	C118.738068,87.386131 119.367531,88.818451 120.052032,90.602310 
z"/>
<path fill="#6C8838" opacity="1.000000" stroke="none" 
	d="
M165.232681,45.766037 
	C164.999390,45.999107 164.500000,45.999859 164.250305,46.000191 
	C160.738754,48.320477 157.101044,49.990505 153.303528,52.048691 
	C152.517456,52.067154 152.079300,52.022732 151.318695,51.904999 
	C153.636429,46.679039 159.550247,46.320251 163.655823,43.272888 
	C167.316025,40.556118 171.513901,38.563725 175.791641,36.103218 
	C176.457077,35.978043 176.724564,36.137138 176.982086,36.662247 
	C177.444199,40.310085 173.780945,39.728062 172.252609,41.750702 
	C171.999390,41.999542 171.500183,42.000332 171.250580,42.000618 
	C169.436554,43.617943 167.123871,44.062397 165.232681,45.766037 
z"/>
<path fill="#596E30" opacity="1.000000" stroke="none" 
	d="
M124.659561,52.081139 
	C127.087158,53.999359 128.534286,51.596859 129.997726,50.870747 
	C132.442093,49.657921 134.615875,47.895760 137.642303,47.036507 
	C139.297836,48.926552 137.604034,49.607521 136.283401,50.827919 
	C133.277481,52.661541 130.513824,54.211884 127.431854,55.903313 
	C126.014908,56.652832 124.885437,57.048656 123.268829,56.264313 
	C123.399231,54.738903 123.887070,53.499275 124.659561,52.081139 
z"/>
<path fill="#5C7231" opacity="1.000000" stroke="none" 
	d="
M136.435791,51.063339 
	C135.776672,49.485832 137.593124,48.986290 137.951416,47.335991 
	C138.000610,47.000732 138.499756,46.999680 138.749329,46.999348 
	C141.222168,45.344730 143.486618,43.778904 146.690353,43.783073 
	C146.283035,47.831600 141.105896,46.654308 140.044937,50.492012 
	C138.941879,50.892769 137.886154,50.954121 136.435791,51.063339 
z"/>
<path fill="#7EA33F" opacity="1.000000" stroke="none" 
	d="
M118.061325,85.580078 
	C116.363289,86.628914 114.880829,87.980766 112.520866,87.990128 
	C113.420982,85.406555 114.675728,82.819267 116.384369,79.296059 
	C117.122780,81.974030 117.568405,83.590179 118.061325,85.580078 
z"/>
<path fill="#6E8C39" opacity="1.000000" stroke="none" 
	d="
M153.079834,52.389458 
	C155.850540,49.162861 159.561264,47.609161 163.641342,46.036633 
	C162.389664,49.876297 157.721756,49.693783 155.139893,52.819077 
	C154.368240,52.959717 153.786148,52.813526 153.079834,52.389458 
z"/>
<path fill="#5D7533" opacity="1.000000" stroke="none" 
	d="
M122.641724,56.121872 
	C124.032364,55.991879 125.153320,56.005219 126.693909,56.031479 
	C125.282562,57.986870 123.451584,59.929344 121.313019,62.015770 
	C119.696892,60.652901 121.414055,59.770462 121.779541,58.299515 
	C122.003525,57.420490 122.187782,56.842850 122.641724,56.121872 
z"/>
<path fill="#6E8C39" opacity="1.000000" stroke="none" 
	d="
M172.352066,41.965149 
	C172.228821,39.069969 175.705963,39.580139 176.901642,37.203087 
	C177.661530,37.393867 178.270157,37.895306 178.991211,38.675156 
	C176.970657,39.945957 174.837708,40.938358 172.352066,41.965149 
z"/>
<path fill="#596E30" opacity="1.000000" stroke="none" 
	d="
M164.577728,33.279095 
	C164.321106,31.861246 164.644043,30.724171 165.007614,29.231684 
	C166.226593,28.837568 167.077164,29.437361 167.920959,30.587881 
	C168.204910,31.079412 168.366714,31.271391 168.264374,31.731800 
	C168.000229,32.000229 168.000000,32.000000 168.000305,32.000305 
	C167.210770,32.808372 166.283218,33.364998 164.577728,33.279095 
z"/>
<path fill="#41A2C4" opacity="1.000000" stroke="none" 
	d="
M144.864044,24.636364 
	C142.666565,24.980776 140.245880,24.983940 137.371582,24.981174 
	C139.343872,23.063667 142.035599,24.170477 144.864044,24.636364 
z"/>
<path fill="#5C7231" opacity="1.000000" stroke="none" 
	d="
M168.351730,31.999676 
	C168.002960,31.814680 168.005707,31.629133 168.025787,31.165510 
	C168.647034,31.050171 169.250946,31.212908 169.982452,31.667816 
	C169.641113,31.973030 169.172180,31.986076 168.351730,31.999676 
z"/>
<path fill="currentColor" opacity="1.000000" stroke="none" 
	d="
M484.876343,65.000053 
	C494.602234,65.715363 501.738556,71.284271 504.331421,79.884895 
	C491.034576,79.884895 477.756439,79.884895 464.455536,79.884895 
	C466.268066,70.837997 474.104004,65.038742 484.876343,65.000053 
z"/>
<path fill="currentColor" opacity="1.000000" stroke="none" 
	d="
M683.782593,72.284714 
	C689.993286,78.752350 690.772644,89.417122 686.124023,96.805611 
	C681.656372,103.906517 672.291138,108.651550 663.512329,106.878387 
	C656.027832,105.366661 648.985229,101.067261 646.981812,89.625526 
	C645.396301,80.571129 649.652161,71.667801 656.911194,67.475952 
	C664.716919,62.968449 678.226074,64.737473 683.782593,72.284714 
z"/>
<path fill="currentColor" opacity="1.000000" stroke="none" 
	d="
M388.110229,92.756966 
	C381.316315,107.173820 366.751129,111.508110 354.612122,102.807518 
	C346.985809,97.341385 344.923004,88.427071 347.358917,79.597305 
	C349.968018,70.139671 358.841156,65.464661 366.229187,64.863266 
	C379.829132,63.756210 393.000458,77.366089 388.110229,92.756966 
z"/>
<path fill="currentColor" opacity="1.000000" stroke="none" 
	d="
M592.408813,77.969894 
	C588.134399,77.994102 584.297302,77.883751 580.470947,78.038811 
	C577.998230,78.139015 576.899902,77.514915 576.945435,74.750587 
	C577.096436,65.588234 576.981445,56.421730 577.028076,47.257122 
	C577.034180,46.061428 576.482056,44.045452 578.461792,44.151829 
	C585.274658,44.517895 592.305298,42.322529 598.840515,46.242542 
	C605.688965,50.350422 608.006836,56.578159 606.865540,63.908436 
	C605.842468,70.478920 601.838928,75.157318 595.135193,77.057564 
	C594.352478,77.279449 593.611206,77.647560 592.408813,77.969894 
z"/>
<path fill="#596E30" opacity="1.000000" stroke="none" 
	d="
M155.623032,38.274448 
	C156.554810,34.363865 160.124191,34.056801 163.621948,33.003860 
	C163.998169,32.998322 164.000000,33.000000 164.000122,33.000191 
	C164.450104,33.722797 164.021408,34.173836 163.253632,34.799522 
	C163.000610,35.000763 163.000000,35.000000 163.000305,35.000427 
	C161.019928,36.698154 158.678696,37.709553 155.623032,38.274448 
z"/>
<path fill="#596E30" opacity="1.000000" stroke="none" 
	d="
M147.000305,44.000427 
	C144.571732,44.976620 142.142838,45.952381 139.356415,46.963577 
	C140.554138,43.362934 144.124619,43.057434 147.730804,42.302582 
	C148.083969,43.008797 147.849091,43.347637 147.247406,43.800507 
	C147.000610,44.000763 147.000000,44.000000 147.000305,44.000427 
z"/>
<path fill="#596E30" opacity="1.000000" stroke="none" 
	d="
M147.999161,41.999161 
	C148.938507,38.876553 151.725571,38.648888 154.623886,38.003677 
	C154.998169,37.998322 155.000000,38.000000 155.000168,38.000214 
	C155.450058,38.722839 155.021439,39.173878 154.253632,39.799545 
	C154.000626,40.000790 154.000000,40.000000 154.000305,40.000458 
	C152.404144,41.264900 150.804108,42.521080 148.302643,42.233276 
	C148.000259,42.000381 148.000000,42.000000 147.999161,41.999161 
z"/>
<path fill="#5C7231" opacity="1.000000" stroke="none" 
	d="
M154.376984,39.995575 
	C154.262604,39.506725 154.524567,39.012661 154.893433,38.259510 
	C157.428787,37.024239 159.857224,36.048054 162.643143,35.036362 
	C161.445251,38.637157 157.875168,38.943275 154.376984,39.995575 
z"/>
<path fill="#5C7231" opacity="1.000000" stroke="none" 
	d="
M147.893402,42.259483 
	C149.764771,41.356750 151.529282,40.713116 153.647202,40.035198 
	C153.061600,43.124374 150.273926,43.351322 147.375031,43.995720 
	C147.262589,43.506706 147.524567,43.012646 147.893402,42.259483 
z"/>
<path fill="#5C7231" opacity="1.000000" stroke="none" 
	d="
M163.367767,34.996094 
	C163.262573,34.506695 163.524551,34.012634 163.893387,33.259476 
	C165.103378,32.688126 166.206528,32.375870 167.655136,32.032112 
	C167.615112,34.475723 165.674072,34.732216 163.367767,34.996094 
z"/>
<path fill="#6E8C39" opacity="1.000000" stroke="none" 
	d="
M165.353638,45.964272 
	C165.591797,43.110584 168.322571,43.103146 170.646729,42.035728 
	C170.408127,44.888859 167.677795,44.896885 165.353638,45.964272 
z"/>
</svg>