<svg width="32" height="32" viewBox="0 0 32 32" fill="none" xmlns="http://www.w3.org/2000/svg">
<path d="M30.4785 27.6211C31.3934 28.536 31.3934 30.0205 30.4785 30.9355C29.5636 31.8505 28.0791 31.8505 27.164 30.9355L15.625 19.3105L4.00388 30.9316C3.08894 31.8465 1.60447 31.8465 0.689429 30.9316C-0.22561 30.0167 -0.225513 28.5322 0.689429 27.6171L12.3144 16L0.686206 4.29098C-0.228735 3.37604 -0.228735 1.89156 0.686206 0.976526C1.60115 0.0614869 3.08562 0.0615845 4.00066 0.976526L15.625 12.6894L27.2461 1.06832C28.161 0.153381 29.6455 0.153381 30.5605 1.06832C31.4756 1.98326 31.4755 3.46774 30.5605 4.38277L18.9355 16L30.4785 27.6211Z" 
fill="currentColor"/>
</svg>
